<?xml version="1.0" encoding="UTF-8" standalone="no"?>
<!DOCTYPE svg PUBLIC "-//W3C//DTD SVG 1.1//EN" "http://www.w3.org/Graphics/SVG/1.1/DTD/svg11.dtd">
<svg xmlns="http://www.w3.org/2000/svg" xmlns:xlink="http://www.w3.org/1999/xlink" version="1.1" width="800pt" height="300pt" viewBox="100 130 600 350">
    <g>
        <g>
            <path fill="#FFF3A9" d="M189.36,161.492c0,0-202.158,51.378-177.491,251.436C11.869,412.928,233.167,364.519,189.36,161.492z"/>
            <path fill="#9BBF6D" d="M282.019,161.492c0,0-202.158,51.378-177.491,251.436C104.528,412.928,325.826,364.519,282.019,161.492z"
            />
            <path fill="#FECA7E" d="M360.854,161.492c0,0-202.158,51.378-177.491,251.436C183.363,412.928,404.661,364.519,360.854,161.492z"
            />
        </g>
        <g>
            <path fill="#557B74" d="M244.366,428.326c0-17.748,18.724-29.45,37.252-42.713c3.315-14.433,4.875-21.259,6.046-28.28
			c-5.656,12.677-14.042,23.209-23.99,23.209c-16.968,0-24.185-17.358-24.185-39.787c0-41.349,24.185-100.055,55.781-100.055
			c3.901,0,7.606,1.365,9.167,3.315c8.776,4.291,11.117,14.043,11.117,24.77c0,13.067-3.511,27.695-4.096,36.277
			c-0.39,5.071-5.071,7.021-9.751,7.021c-4.876,0-9.752-2.146-9.752-5.851c0-13.848,11.702-34.717,11.702-49.54
			c0-3.316-0.585-6.437-1.95-8.972c-23.015,0.39-43.494,60.072-43.494,94.789c0,14.433,3.315,24.575,11.702,24.575
			c9.167,0,15.993-14.823,21.454-29.841c1.365-2.926,4.681-4.682,7.997-4.682c4.291,0,8.387,2.73,8.387,8.582
			c0,3.706-2.925,18.334-4.681,27.5c8.582-7.996,16.383-17.553,22.234-29.646c0.975-2.146,2.34-3.12,3.315-3.12
			c0.78,0,1.365,0.585,1.365,1.95c0,0.78-0.39,1.95-0.78,3.12c-7.411,18.334-17.749,30.621-28.67,39.983l-4.876,19.113
			c-7.997,31.011-23.015,42.908-34.521,42.908C253.143,442.954,244.366,437.298,244.366,428.326z M256.458,436.908
			c6.241,0,15.798-8.582,22.234-39.203c-11.897,8.582-27.5,20.089-27.5,32.962C251.192,433.397,252.752,436.908,256.458,436.908z"/>
            <path fill="#557B74" d="M335.449,373.911c-0.585,4.291-3.901,6.436-7.216,6.436c-3.706,0-7.412-2.73-7.412-8.581
			c0-13.652,6.631-52.075,15.408-82.111c0.976-3.315,4.096-4.875,7.412-4.875c4.486,0,9.557,3.121,9.557,8.582
			c0,3.315-2.341,8.191-3.316,11.702c7.021-15.018,15.603-25.94,25.16-25.94c7.216,0,9.947,4.291,9.947,12.677
			c0,10.922-9.362,29.061-9.362,35.887c0,2.73,1.56,4.291,4.486,4.291c6.436,0,14.433-14.237,17.749-21.844
			c1.17-2.926,2.535-4.681,3.705-4.681c2.146,0,1.365,4.096,0.976,5.461c-2.926,11.117-14.238,28.67-27.696,28.67
			c-7.801,0-15.213-3.315-15.213-15.018c0-10.728,8.582-23.795,8.582-29.841c0-1.365-0.585-2.34-1.95-2.34
			c-6.631,0-22.625,27.89-27.695,60.852L335.449,373.911z"/>
            <path fill="#557B74" d="M440.964,363.379c0,2.926,0.975,4.876,2.73,4.876c4.096,0,10.142-10.337,19.309-29.256
			c0.976-2.146,2.535-3.315,3.511-3.315c0.585,0,1.17,0.585,1.17,1.95c0,0.78-0.194,1.95-0.78,3.315
			c-2.73,6.826-15.018,38.812-30.035,38.812c-6.047,0-13.263-3.315-13.263-17.943c0-0.975,0-2.34,0.195-3.705
			c-6.437,13.262-13.848,21.648-20.089,21.648c-10.533,0-15.019-11.312-15.019-26.524c0-29.646,17.163-73.725,39.593-73.725
			c7.802,0,12.678,8.387,13.067,14.433h1.171c4.876,0,10.727,4.096,10.727,11.312c0,0.975,0,1.95-0.195,2.926
			C447.79,332.953,440.964,354.017,440.964,363.379z M430.236,326.321l6.241-28.085c0-3.316-0.585-7.412-5.266-7.412
			c-13.067,0-24.965,45.639-24.965,66.118c0,5.852,0.975,9.557,3.315,9.557C416.779,366.499,425.36,347.971,430.236,326.321z"/>
            <path fill="#557B74" d="M465.93,379.567c-3.901,0-7.997-2.536-7.997-7.606c0-6.632,7.802-52.66,16.578-82.307
			c0.976-3.51,4.097-5.071,7.217-5.071c4.681,0,9.557,3.316,9.557,8.972c0,0.975,0,1.951-2.146,9.362
			c6.437-13.263,14.238-22.429,23.405-22.429c16.968,0,15.603,15.798,12.872,27.89c6.631-15.993,15.018-27.89,24.185-27.89
			c11.508,0,14.433,9.167,14.433,16.383c0,21.649-16.578,56.756-16.578,69.628c0,3.121,0.78,4.876,3.315,4.876
			c8.387,0,20.089-28.28,22.234-32.376c0.976-2.146,2.341-3.315,3.316-3.315c0.779,0,1.365,0.78,1.365,2.146
			c0,0.78-0.195,1.755-0.78,3.12c-2.73,6.826-13.067,39.397-30.036,39.397c-7.802,0-15.213-5.461-15.213-17.163
			c0-16.968,15.408-53.05,15.408-65.922c0-2.926-0.78-4.681-2.73-4.681c-5.071,0-17.554,19.504-25.94,51.1
			c-1.95,9.167-4.291,19.309-6.631,30.621c-0.78,3.511-4.291,5.461-7.997,5.461c-4.485,0-9.167-2.925-9.167-9.166
			c0-8.387,13.458-54.026,13.458-70.799c0-4.291-0.976-7.021-3.12-7.021c-8.973,0-24.575,38.812-31.206,81.136
			C473.146,377.616,469.635,379.567,465.93,379.567z"/>
            <path fill="#557B74" d="M632.883,300.771c0,18.724-14.043,45.054-34.717,45.054c-2.341,0-4.876-0.39-7.412-1.17
			c0,8.582,0.78,23.404,12.873,23.404c18.528,0,28.476-21.063,33.546-29.061c1.171-1.95,2.146-2.73,3.121-2.73
			c0.78,0,1.365,0.78,1.365,1.95c0,0.78-0.195,1.756-0.585,2.73c-8.777,21.845-22.43,39.008-44.858,39.008
			c-16.773,0-23.6-15.213-23.6-33.741c0-29.061,16.772-66.703,37.252-66.703c4.291,0,8.776,1.365,11.117,3.315
			C629.177,283.803,632.883,291.215,632.883,300.771z M592.705,339.584c11.507,0,28.085-30.815,28.085-46.029
			c0-3.121-0.39-6.436-3.315-6.436c-11.117,0-23.99,28.865-26.33,52.271C591.729,339.584,592.119,339.584,592.705,339.584z"/>
            <path fill="#557B74" d="M640.488,380.347c-4.096,0-8.581-2.925-8.581-8.776c0-0.585,0.194-1.17,0.194-1.755
			c3.511-29.256,7.997-48.955,17.164-80.161c0.975-3.51,4.096-5.071,7.216-5.071c4.681,0,9.557,3.316,9.557,8.972
			c0,5.071-3.315,13.068-4.485,18.138c7.996-18.333,17.943-32.571,28.085-32.571c11.508,0,14.434,10.532,14.434,17.749
			c0,22.039-18.919,55.78-18.919,67.678c0,2.536,0.975,4.096,3.12,4.096c8.582,0,22.04-25.745,24.38-29.646
			c1.17-1.95,2.73-3.315,3.706-3.315c0.585,0,0.975,0.39,0.975,1.365c0,0.78-0.194,1.95-0.779,3.511
			c-2.341,7.021-16.579,39.787-33.547,39.787c-7.802,0-15.213-5.461-15.213-17.163c0-17.553,18.724-52.855,18.724-65.922
			c0-2.536-0.976-4.681-3.121-4.681c-7.216,0-24.379,30.23-31.986,65.533l-0.585,1.365c-0.975,5.461-1.755,10.142-2.34,14.433
			C647.705,378.202,644.194,380.347,640.488,380.347z"/>
            <path fill="#557B74" d="M772.529,300.771c0,18.724-14.043,45.054-34.717,45.054c-2.341,0-4.876-0.39-7.412-1.17
			c0,8.582,0.78,23.404,12.873,23.404c18.528,0,28.476-21.063,33.546-29.061c1.171-1.95,2.146-2.73,3.121-2.73
			c0.78,0,1.365,0.78,1.365,1.95c0,0.78-0.195,1.756-0.585,2.73c-8.777,21.845-22.43,39.008-44.858,39.008
			c-16.773,0-23.6-15.213-23.6-33.741c0-29.061,16.772-66.703,37.252-66.703c4.291,0,8.776,1.365,11.117,3.315
			C768.823,283.803,772.529,291.215,772.529,300.771z M732.352,339.584c11.507,0,28.085-30.815,28.085-46.029
			c0-3.121-0.39-6.436-3.315-6.436c-11.117,0-23.99,28.865-26.33,52.271C731.376,339.584,731.766,339.584,732.352,339.584z"/>
        </g>
        <text fill="#ffc000" xml:space="preserve" font-size="64" font-family="Arial" font-weight="bold"><tspan y="260" x="560">ORYZA</tspan></text>
    </g>
</svg>
